<svg width="20" height="20" viewBox="0 0 20 20" fill="none" xmlns="http://www.w3.org/2000/svg">
<path d="M10 1.33334C5.22137 1.33334 1.33337 5.22134 1.33337 10C1.33337 14.7787 5.22137 18.6667 10 18.6667C14.7787 18.6667 18.6667 14.7787 18.6667 10C18.6667 5.22134 14.7787 1.33334 10 1.33334ZM7.77738 4.00001H12.2214C14.3047 4.00001 16 5.69469 16 7.77735V12.2214C16 14.3047 14.3054 16 12.2227 16H7.77869C5.69535 16 4.00004 14.3053 4.00004 12.2227V7.77866C4.00004 5.69532 5.69472 4.00001 7.77738 4.00001ZM7.77738 5.33334C6.43005 5.33334 5.33337 6.43066 5.33337 7.77866V12.2227C5.33337 13.57 6.43069 14.6667 7.77869 14.6667H12.2227C13.57 14.6667 14.6667 13.5694 14.6667 12.2214V7.77735C14.6667 6.43002 13.5694 5.33334 12.2214 5.33334H7.77738ZM13.112 6.44402C13.3574 6.44402 13.556 6.6427 13.556 6.88803C13.556 7.13336 13.3574 7.33334 13.112 7.33334C12.8667 7.33334 12.6667 7.13336 12.6667 6.88803C12.6667 6.6427 12.8667 6.44402 13.112 6.44402ZM10 6.66668C11.838 6.66668 13.3334 8.16201 13.3334 10C13.3334 11.838 11.838 13.3333 10 13.3333C8.16204 13.3333 6.66671 11.838 6.66671 10C6.66671 8.16201 8.16204 6.66668 10 6.66668ZM10 8.00001C9.46961 8.00001 8.9609 8.21072 8.58583 8.5858C8.21075 8.96087 8.00004 9.46958 8.00004 10C8.00004 10.5304 8.21075 11.0392 8.58583 11.4142C8.9609 11.7893 9.46961 12 10 12C10.5305 12 11.0392 11.7893 11.4143 11.4142C11.7893 11.0392 12 10.5304 12 10C12 9.46958 11.7893 8.96087 11.4143 8.5858C11.0392 8.21072 10.5305 8.00001 10 8.00001Z" fill="white"/>
</svg>
