<svg width="29" height="29" viewBox="0 0 29 29" fill="none" xmlns="http://www.w3.org/2000/svg">
<path d="M17.6107 26.0417C17.3812 26.1131 17.1472 26.1765 16.915 26.2299C16.3079 26.3708 15.9065 27.0996 16.0188 27.8581C16.0743 28.2312 16.2441 28.542 16.4746 28.7449C16.7121 28.9536 17.0145 29.0478 17.3226 28.9763C17.5991 28.9122 17.8778 28.8369 18.1513 28.7517C18.7508 28.5655 19.1161 27.8074 18.9665 27.0594C18.8173 26.3108 18.2105 25.8553 17.6107 26.0417Z" fill="#67A1D6"/>
<path d="M26.3887 10.2253C26.4825 10.4638 26.6617 10.6585 26.8879 10.793C27.2234 10.9923 27.6624 11.0594 28.0813 10.9426C28.7836 10.7459 29.1642 10.1071 28.9318 9.51501C28.826 9.2451 28.7085 8.97434 28.5834 8.71072C28.3086 8.13139 27.5295 7.84934 26.8423 8.08107C26.1558 8.31268 25.8213 8.96999 26.0962 9.5495C26.2014 9.77109 26.2998 9.99853 26.3887 10.2253Z" fill="#67A1D6"/>
<path d="M21.2057 25.2102C21.0017 25.3578 20.7911 25.5007 20.5789 25.6346C20.0254 25.9844 19.8358 26.7597 20.155 27.3659C20.2416 27.5308 20.357 27.6656 20.49 27.7687C20.8468 28.0438 21.3314 28.085 21.7349 27.8303C21.9871 27.6709 22.2379 27.5013 22.481 27.3252C23.0138 26.9395 23.1604 26.1531 22.8082 25.569C22.4561 24.9847 21.7387 24.8242 21.2057 25.2102Z" fill="#67A1D6"/>
<path d="M28.9858 14.0686C28.9533 13.4547 28.259 12.9769 27.4344 13.0009C26.6109 13.0251 25.9688 13.5423 26.0012 14.1559C26.0135 14.3906 26.0167 14.6287 26.0095 14.8631C25.9979 15.248 26.2507 15.5912 26.6436 15.7975C26.8777 15.9202 27.1618 15.9945 27.4698 15.9997C28.2941 16.0133 28.9773 15.5264 28.9955 14.9123C29.0038 14.6322 29.0007 14.3485 28.9858 14.0686Z" fill="#67A1D6"/>
<path d="M25.5077 21.2362C24.9626 20.8448 24.1915 20.9511 23.7832 21.4717C23.6269 21.6711 23.4622 21.8681 23.2937 22.0577C22.8531 22.553 22.9153 23.297 23.4329 23.7189C23.4624 23.7429 23.4923 23.7649 23.5232 23.7855C24.0378 24.1327 24.753 24.0529 25.1691 23.5857C25.3704 23.3595 25.5667 23.1242 25.7535 22.8861C26.1618 22.3654 26.0513 21.6269 25.5077 21.2362Z" fill="#67A1D6"/>
<path d="M28.0565 18.052C27.3472 17.8656 26.5919 18.1965 26.3696 18.7911C26.2845 19.0182 26.1902 19.2464 26.0885 19.4699C25.865 19.962 26.0791 20.5034 26.57 20.7935C26.66 20.8465 26.7592 20.8915 26.8669 20.9256C27.5614 21.1477 28.339 20.8557 28.6038 20.2733C28.7246 20.0076 28.8367 19.736 28.9381 19.466C29.1602 18.8713 28.7656 18.2384 28.0565 18.052Z" fill="#67A1D6"/>
<path d="M12.2188 26.6697C11.187 26.4811 10.1972 26.1601 9.2586 25.7124C9.24749 25.7065 9.23756 25.6998 9.2259 25.6944C9.00472 25.5885 8.78392 25.475 8.5699 25.3564C8.56916 25.3556 8.56781 25.355 8.56663 25.3545C8.17396 25.1345 7.79074 24.891 7.41843 24.6243C1.98955 20.7329 0.684233 13.0728 4.50874 7.54872C5.34036 6.34796 6.34675 5.3462 7.46873 4.55223C7.48255 4.54244 7.49637 4.5327 7.51007 4.52285C11.4637 1.75085 16.8322 1.56404 21.0304 4.41252L20.1287 5.73817C19.878 6.10715 20.0322 6.37603 20.4711 6.33584L24.3877 5.97905C24.8271 5.93886 25.0899 5.55211 24.9717 5.12033L23.9199 1.26439C23.8022 0.832109 23.5007 0.780366 23.2498 1.14928L22.3461 2.47807C19.2652 0.373648 15.57 -0.428801 11.9023 0.218357C11.5329 0.283412 11.1686 0.363035 10.8094 0.45572C10.8066 0.456222 10.8044 0.456536 10.8022 0.457038C10.7883 0.460492 10.7742 0.465076 10.7607 0.468907C7.59801 1.29534 4.83858 3.17233 2.86956 5.85038C2.85296 5.87041 2.83586 5.89 2.82019 5.91179C2.75471 6.00153 2.68973 6.09333 2.62611 6.18514C2.52206 6.33559 2.4195 6.48981 2.32138 6.64404C2.30909 6.66262 2.29971 6.68153 2.28898 6.7003C0.664115 9.26237 -0.11962 12.2244 0.0147873 15.2399C0.0150959 15.2498 0.0145405 15.2598 0.0147873 15.27C0.0278085 15.5645 0.0507651 15.8632 0.0819294 16.1572C0.0835956 16.1762 0.0877302 16.1941 0.0908775 16.2131C0.123091 16.5087 0.163512 16.805 0.214177 17.1013C0.729097 20.1241 2.13044 22.8442 4.23029 24.9606C4.23517 24.9656 4.24023 24.971 4.24517 24.9762C4.2469 24.9781 4.24881 24.9791 4.25047 24.9809C4.81464 25.5471 5.4283 26.0708 6.08904 26.5444C7.8182 27.7842 9.74366 28.6037 11.8115 28.9813C12.4389 29.096 13.0382 28.671 13.1508 28.0329C13.2633 27.3944 12.846 26.784 12.2188 26.6697Z" fill="#67A1D6"/>
<path d="M13.9464 5C13.4235 5 13 5.42581 13 5.95028V15.4178L21.6196 19.8939C21.7583 19.966 21.9069 20 22.0531 20C22.3954 20 22.7261 19.8127 22.8942 19.486C23.134 19.0196 22.9525 18.4466 22.4883 18.2058L14.8917 14.2605V5.95028C14.8916 5.42581 14.4686 5 13.9464 5Z" fill="#67A1D6"/>
</svg>
