<?xml version="1.0" encoding="UTF-8"?>
<svg width="31px" height="31px" viewBox="0 0 31 31" version="1.1" xmlns="http://www.w3.org/2000/svg" xmlns:xlink="http://www.w3.org/1999/xlink">
    <!-- Generator: Sketch 50.2 (55047) - http://www.bohemiancoding.com/sketch -->
    <title>goal</title>
    <desc>Created with Sketch.</desc>
    <defs></defs>
    <g id="Page-1" stroke="none" stroke-width="1" fill="none" fill-rule="evenodd">
        <g id="city-card" transform="translate(-836.000000, -641.000000)" fill="#67A1D6" fill-rule="nonzero">
            <g id="goal" transform="translate(836.000000, 641.000000)">
                <path d="M30.0913143,29.1806533 L28.7743012,29.1806533 L19.2738491,12.5206553 C18.6483405,11.4238219 17.6208621,10.6819106 16.4271828,10.430707 L16.4271828,7.43275244 L18.5694481,7.43275244 C18.7586567,7.43275244 18.9392677,7.49215869 19.0917244,7.60472747 L19.212939,7.69420056 C19.6798756,8.03893867 20.2333941,8.22115825 20.8136136,8.22115825 L22.3709368,8.22115825 C23.3421673,8.22115825 24.132363,7.4300246 24.132363,6.45764127 L24.132363,3.97670289 C24.132363,3.00431957 23.3421673,2.21318592 22.3709368,2.21318592 L20.7675376,2.21318592 C20.568036,2.21318592 20.37247,2.14432316 20.2167437,2.01926694 C19.7396958,1.63591477 19.1401013,1.42484073 18.5285185,1.42484073 L16.4272433,1.42484073 L16.4272433,0.909703673 C16.4272433,0.407296527 16.0204296,0 15.5186181,0 C15.0168066,0 14.6099929,0.407296527 14.6099929,0.909703673 L14.6099929,10.4293734 C13.4134679,10.6792434 12.383386,11.4218821 11.756727,12.5207765 L2.25627489,29.1806533 L0.908625178,29.1806533 C0.406813659,29.1806533 0,29.5879498 0,30.0902963 C0,30.5927035 0.406813659,31 0.908625178,31 L30.0913748,31 C30.5931863,31 31,30.5927035 31,30.0902963 C30.9999395,29.5879498 30.5931863,29.1806533 30.0913143,29.1806533 Z M16.4272433,3.24412684 L18.528579,3.24412684 C18.7280806,3.24412684 18.9237072,3.31298959 19.0793729,3.43798519 C19.5563602,3.82133736 20.1559548,4.03247203 20.7675981,4.03247203 L22.3151732,4.03247203 L22.3151732,6.4017509 L20.8135531,6.4017509 C20.6242839,6.4017509 20.4437335,6.34234465 20.2912768,6.22977587 L20.1699411,6.14018154 C19.7030045,5.79550405 19.149486,5.61328447 18.5693876,5.61328447 L16.4271828,5.61328447 L16.4271828,3.24412684 L16.4272433,3.24412684 Z M13.3348783,13.4227817 C13.7874653,12.6291626 14.6025457,12.1554281 15.5153486,12.1554281 C16.4281515,12.1554281 17.2431714,12.6292233 17.695819,13.4227817 L19.6672819,16.8799829 L18.9924883,17.473803 C18.4705753,17.9330497 17.6982408,17.9168645 17.1961266,17.4357951 C16.3495618,16.6247785 15.2380445,16.1781405 14.0662831,16.1781405 L11.7636294,16.1781405 L13.3348783,13.4227817 Z M4.3488919,29.1805927 L10.7261607,17.9974266 L14.0663436,17.9974266 C14.7677173,17.9974266 15.4330656,18.2648154 15.9399025,18.7502493 C16.5103135,19.2967262 17.2591557,19.6068511 18.0485644,19.6235818 C18.0709667,19.6240668 18.0933084,19.6243092 18.1157107,19.6243092 C18.8809612,19.6243092 19.6160593,19.3472821 20.1921617,18.8402074 L20.5870477,18.4927414 L26.6818053,29.1805927 L4.3488919,29.1805927 Z" id="Shape"></path>
            </g>
        </g>
    </g>
</svg>