<svg width="45" height="49" viewBox="0 0 45 49" fill="none" xmlns="http://www.w3.org/2000/svg">
<path d="M43.3841 12.0462H41.284C42.7916 10.797 43.7537 8.91133 43.7537 6.80506C43.7537 3.0527 40.701 0 36.9488 0C35.1519 0 33.457 0.694236 32.1749 1.95614L26.2794 7.7836C25.6637 6.30203 24.2019 5.25718 22.5 5.25718C20.7983 5.25718 19.3363 6.30203 18.7208 7.7837L12.824 1.9551C11.5431 0.69434 9.84811 0 8.05127 0C4.29901 0 1.24631 3.0527 1.24631 6.80495C1.24631 8.91122 2.20838 10.7969 3.71602 12.0461H1.6159C1.18407 12.0461 0.833984 12.3962 0.833984 12.828V23.2535C0.833984 23.6854 1.18407 24.0354 1.6159 24.0354H2.91909V48.2181C2.91909 48.6499 3.26918 49 3.70101 49H41.2991C41.731 49 42.081 48.6499 42.081 48.2181V24.0355H43.3842C43.8162 24.0355 44.1661 23.6855 44.1661 23.2536V12.8281C44.166 12.3963 43.8161 12.0462 43.3841 12.0462ZM33.273 3.06948C34.2596 2.09856 35.5649 1.56383 36.9488 1.56383C39.8388 1.56383 42.1899 3.915 42.1899 6.80495C42.1899 9.69491 39.8387 12.0461 36.9488 12.0461H26.5909V9.67458L33.273 3.06948ZM18.0692 13.61H21.7181V31.5941C21.7181 32.0259 22.0682 32.376 22.5 32.376C22.9318 32.376 23.2819 32.0259 23.2819 31.5941V13.61H26.9309V36.4683L22.9023 34.0511C22.6547 33.9026 22.3453 33.9026 22.0977 34.0511L18.0692 36.4683V13.61ZM22.5 6.82101C23.8934 6.82101 25.0271 7.95468 25.0271 9.34805V12.0462H19.973V9.34805C19.973 7.95458 21.1066 6.82101 22.5 6.82101ZM2.81014 6.80495C2.81014 3.915 5.16131 1.56383 8.05127 1.56383C9.43505 1.56383 10.7404 2.09856 11.7259 3.06834L18.4091 9.67448V12.0461H8.05127C5.16131 12.0462 2.81014 9.69501 2.81014 6.80495ZM42.6022 22.4717H30.8404C30.4085 22.4717 30.0585 22.8218 30.0585 23.2536C30.0585 23.6855 30.4085 24.0355 30.8404 24.0355H40.5171V47.4362H4.48292V24.0355H14.1596C14.5914 24.0355 14.9415 23.6855 14.9415 23.2536C14.9415 22.8218 14.5914 22.4717 14.1596 22.4717H2.39781V13.61H16.5053V37.8494C16.5053 38.1311 16.6569 38.391 16.902 38.5297C17.1472 38.6686 17.448 38.6648 17.6896 38.5198L22.5 35.6336L27.3106 38.5199C27.4343 38.5942 27.5734 38.6314 27.7128 38.6314C27.8455 38.6314 27.9784 38.5976 28.098 38.5298C28.3432 38.3911 28.4947 38.1312 28.4947 37.8495V13.6101H42.6022V22.4717Z" fill="#3CC4E7"/>
</svg>
