<svg width="49" height="49" viewBox="0 0 49 49" fill="none" xmlns="http://www.w3.org/2000/svg">
<g clip-path="url(#clip0_10_3)">
<path d="M46.0351 20.4962H36.3281C35.8355 20.4962 35.4374 20.8943 35.4374 21.3868C35.4374 21.8793 35.8355 22.2774 36.3281 22.2774H44.4346L47.0166 46.3245H2.01996L5.05078 22.2774H13.1716C13.6641 22.2774 14.0622 21.8793 14.0622 21.3868C14.0622 20.8943 13.6641 20.4962 13.1716 20.4962H3.47971L0 48.1058H49L46.0351 20.4962Z" fill="#3CC4E7"/>
<path d="M23.739 34.7062C23.608 34.7837 23.4682 34.8523 23.3426 34.9333C23.1467 35.0598 22.9552 35.1925 22.7673 35.3296C22.371 35.6209 22.2855 36.1784 22.5758 36.5748C22.7504 36.8126 23.0211 36.9381 23.2954 36.9381C23.478 36.9381 23.6624 36.882 23.8218 36.7662C23.9803 36.6496 24.1415 36.5373 24.3099 36.4287C24.5958 36.2434 24.8995 36.0698 25.213 35.9112C25.6298 35.7001 25.799 35.2067 25.6244 34.781C25.6316 34.7739 25.6405 34.7685 25.6467 34.7614C27.2579 33.055 32.6872 26.6602 34.9351 16.0065C35.3911 13.8458 35.4936 11.7724 35.2397 9.84416C34.4738 3.98824 30.8355 0.892395 24.7187 0.892395C18.6036 0.892395 14.9653 3.98824 14.1976 9.84416C13.9447 11.7733 14.0471 13.8467 14.5031 16.0065C16.7288 26.5569 22.0726 32.9267 23.739 34.7062ZM15.9637 10.0766C16.6166 5.09619 19.4808 2.67455 24.7196 2.67455C29.9592 2.67455 32.8225 5.09619 33.4745 10.0766C33.7016 11.8044 33.6063 13.6774 33.193 15.6404C31.1722 25.2174 26.3539 31.2942 24.7196 33.1378C23.0835 31.2924 18.266 25.2129 16.2461 15.6404C15.8319 13.6774 15.7375 11.8053 15.9637 10.0766Z" fill="#3CC4E7"/>
<path d="M24.7196 17.7458C28.3276 17.7458 31.2622 14.8112 31.2622 11.2032C31.2622 7.59528 28.3276 4.66064 24.7196 4.66064C21.1116 4.66064 18.177 7.59528 18.177 11.2032C18.177 14.8112 21.1116 17.7458 24.7196 17.7458ZM24.7196 6.4428C27.3443 6.4428 29.4809 8.57854 29.4809 11.2041C29.4809 13.8297 27.3452 15.9655 24.7196 15.9655C22.094 15.9655 19.9583 13.8297 19.9583 11.2041C19.9583 8.57854 22.0949 6.4428 24.7196 6.4428Z" fill="#3CC4E7"/>
<path d="M27.9908 33.1048C27.5098 33.2064 27.2034 33.6802 27.3059 34.162C27.3949 34.5806 27.7645 34.8665 28.176 34.8665C28.2375 34.8665 28.3007 34.8603 28.363 34.8469C28.885 34.7365 29.4505 34.6429 30.0428 34.5681C30.5308 34.5085 30.8782 34.0631 30.8167 33.5751C30.7562 33.0861 30.3153 32.7334 29.8237 32.8011C29.1798 32.8804 28.5625 32.9828 27.9908 33.1048Z" fill="#3CC4E7"/>
<path d="M32.5963 33.4664C32.6159 33.9447 33.0114 34.3187 33.4852 34.3187C33.4985 34.3187 33.511 34.3188 33.5244 34.3179L35.3065 34.2439C35.7973 34.2217 36.1784 33.8049 36.1553 33.3141C36.133 32.8216 35.6752 32.4377 35.2255 32.4644L33.4478 32.5384C32.9561 32.5589 32.5749 32.9739 32.5963 33.4664Z" fill="#3CC4E7"/>
<path d="M19.9796 37.5643C19.5218 37.9098 19.0489 38.242 18.5724 38.5502C18.1601 38.8183 18.0425 39.3696 18.3106 39.7828C18.4807 40.0456 18.7675 40.1881 19.0587 40.1881C19.2253 40.1881 19.3927 40.1418 19.5432 40.0447C20.0536 39.7134 20.5621 39.3571 21.0528 38.9866C21.4447 38.69 21.5231 38.1316 21.2274 37.7388C20.9308 37.3496 20.3742 37.2677 19.9796 37.5643Z" fill="#3CC4E7"/>
<path d="M39.8292 31.6914C39.5281 31.9025 39.1371 32.0557 38.6304 32.1599C38.1485 32.2588 37.8386 32.7308 37.9383 33.2126C38.0256 33.6339 38.3961 33.9234 38.8103 33.9234C38.8699 33.9234 38.9305 33.9171 38.9911 33.9047C39.741 33.7497 40.3502 33.5021 40.8578 33.1449L40.9772 33.0577C41.3691 32.7602 41.4466 32.2018 41.15 31.8099C40.8525 31.418 40.295 31.3414 39.9022 31.6371L39.8292 31.6914Z" fill="#3CC4E7"/>
<path d="M7.89104 38.6553C8.02018 38.1806 7.73874 37.6916 7.26403 37.5634C6.79289 37.4307 6.30037 37.7139 6.17212 38.1904C6.0599 38.6036 5.9931 39.0258 5.97172 39.4417C5.96727 39.5441 5.9646 39.6474 5.9646 39.7561C5.96549 39.9307 5.97351 40.1052 5.99043 40.2789C6.03763 40.7376 6.42417 41.0787 6.87572 41.0787C6.90511 41.0787 6.93539 41.0769 6.96745 41.0742C7.45641 41.0235 7.81266 40.5871 7.76368 40.0972C7.75121 39.9805 7.74676 39.8621 7.74587 39.7499C7.74587 39.6759 7.74854 39.602 7.7521 39.529C7.76635 39.2404 7.81266 38.9456 7.89104 38.6553Z" fill="#3CC4E7"/>
<path d="M39.8096 24.7685C39.1024 24.6741 38.381 24.732 37.6845 24.9297C37.2107 25.0624 36.9355 25.5549 37.07 26.0279C37.1804 26.4206 37.5376 26.6771 37.9259 26.6771C38.0069 26.6771 38.088 26.6665 38.1681 26.6433C38.6313 26.5133 39.1078 26.4723 39.5709 26.5346C40.0714 26.597 40.5078 26.2577 40.5729 25.7714C40.6388 25.2824 40.2968 24.8344 39.8096 24.7685Z" fill="#3CC4E7"/>
<path d="M41.582 29.1807C41.4368 29.6501 41.7004 30.1497 42.1698 30.294C42.258 30.3216 42.3453 30.3341 42.4325 30.3341C42.8137 30.3341 43.1655 30.0892 43.2831 29.7062C43.3713 29.423 43.4256 29.1353 43.4461 28.8485C43.4505 28.7746 43.4532 28.6998 43.4532 28.6258C43.4532 28.209 43.3766 27.7913 43.2261 27.3861C43.0551 26.9238 42.5394 26.6905 42.0816 26.8606C41.6194 27.0316 41.3852 27.5446 41.5562 28.0051C41.6327 28.2117 41.6719 28.421 41.6719 28.625L41.6693 28.7292C41.6586 28.877 41.6301 29.0248 41.582 29.1807Z" fill="#3CC4E7"/>
<path d="M15.5692 40.2246C15.0473 40.4695 14.5156 40.6966 13.9892 40.9006C13.5305 41.0769 13.3025 41.5926 13.4798 42.0522C13.6161 42.4049 13.9527 42.6222 14.3107 42.6222C14.4176 42.6222 14.5263 42.6035 14.6314 42.5625C15.1969 42.3443 15.7669 42.1003 16.3262 41.8384C16.7716 41.63 16.9631 41.0992 16.7538 40.6539C16.5462 40.2077 16.0172 40.0144 15.5692 40.2246Z" fill="#3CC4E7"/>
<path d="M9.08539 36.5168C9.22879 36.5168 9.37485 36.4821 9.51112 36.4082C9.76762 36.2684 10.041 36.1811 10.3225 36.1508C10.4427 36.1365 10.5656 36.1365 10.6841 36.1526C11.1855 36.2176 11.6192 35.8738 11.6834 35.3866C11.7475 34.8986 11.4046 34.4515 10.9174 34.3873C10.652 34.3526 10.3822 34.3508 10.1239 34.3802C9.61265 34.4363 9.11924 34.5931 8.65789 34.8442C8.22593 35.0803 8.06651 35.62 8.30253 36.0519C8.46462 36.3494 8.77011 36.5168 9.08539 36.5168Z" fill="#3CC4E7"/>
<path d="M8.90019 43.5003C9.09257 43.5502 9.28851 43.5876 9.48267 43.6108C9.71067 43.6384 9.93867 43.6526 10.1676 43.6526C10.4463 43.6526 10.726 43.633 11.0048 43.5974C11.4928 43.536 11.8393 43.0906 11.7769 42.6026C11.7146 42.1145 11.272 41.7707 10.7821 41.8304C10.4223 41.8767 10.0589 41.8874 9.69909 41.8437C9.58153 41.8286 9.46396 41.8063 9.34818 41.777C8.87169 41.6496 8.3863 41.9382 8.26161 42.4146C8.13959 42.8911 8.42459 43.3774 8.90019 43.5003Z" fill="#3CC4E7"/>
</g>
<defs>
<clipPath id="clip0_10_3">
<rect width="49" height="49" fill="white"/>
</clipPath>
</defs>
</svg>
