<svg width="51" height="51" viewBox="0 0 51 51" fill="none" xmlns="http://www.w3.org/2000/svg">
<g clip-path="url(#clip0_6_359)">
<path d="M48.3209 33.1857C47.1596 31.1644 44.586 30.4572 42.5552 31.6023L32.5166 36.7201C31.963 36.0822 31.2309 35.6253 30.4149 35.4074L19.9061 32.5934C19.1022 32.3763 18.2522 32.4021 17.4624 32.6665L13.8548 33.8692C13.5946 33.9556 13.3219 34 13.0476 34H10.2V30.6H0V32.3H8.5V49.3H0V51H10.2V48.45H11.4816C11.69 48.45 11.8975 48.4757 12.0996 48.5263L18.087 50.0226C18.4244 50.1072 18.7706 50.15 19.1184 50.15H26.2898C27.0356 50.1504 27.7686 49.9541 28.4148 49.5814L46.7678 38.9863C48.0798 38.2255 48.8891 36.8256 48.8928 35.309C48.8937 34.5632 48.6961 33.8302 48.3209 33.1857ZM45.917 37.5137L27.564 48.1101C27.1759 48.3329 26.7364 48.45 26.289 48.45H19.1184C18.91 48.45 18.7025 48.4242 18.5004 48.3736L12.513 46.8774C12.1756 46.7927 11.8294 46.75 11.4816 46.75H10.2V35.7H13.0484C13.5054 35.7 13.9594 35.6265 14.3931 35.4825L18.0002 34.2797C18.4738 34.1208 18.9839 34.1054 19.4657 34.2353L29.9754 37.0505C31.3342 37.4211 32.1352 38.8231 31.7646 40.182C31.394 41.5408 29.992 42.3418 28.6331 41.9712L20.6005 40.0467L20.2045 41.701L28.2139 43.6193C29.7189 44.0223 31.3234 43.5695 32.3959 42.4398C33.4679 41.3101 33.8365 39.6839 33.3559 38.2022L43.3662 33.0964C44.156 32.6449 45.1259 32.6469 45.9137 33.1018C46.7014 33.5571 47.1883 34.3968 47.1912 35.3065C47.1895 36.2167 46.7043 37.0572 45.917 37.5137Z" fill="#3CC4E7"/>
<path d="M32.2998 13.6C26.6665 13.6 22.0999 18.1667 22.0999 23.8C22.0999 29.4333 26.6665 34 32.2998 34C37.9332 34 42.4998 29.4333 42.4998 23.8C42.4936 18.1691 37.9307 13.6062 32.2998 13.6ZM32.2998 32.3C27.6053 32.3 23.7999 28.4945 23.7999 23.8C23.7999 19.1055 27.6053 15.3 32.2998 15.3C36.9944 15.3 40.7998 19.1055 40.7998 23.8C40.7949 28.4924 36.9923 32.295 32.2998 32.3Z" fill="#3CC4E7"/>
<path d="M43.35 0C39.1249 0 35.7 3.4249 35.7 7.65C35.7 11.8751 39.1249 15.3 43.35 15.3C47.5751 15.3 51 11.8751 51 7.65C50.9954 3.42698 47.573 0.00456543 43.35 0ZM43.35 13.6C40.0637 13.6 37.4 10.9363 37.4 7.65C37.4 4.36372 40.0637 1.7 43.35 1.7C46.6362 1.7 49.3 4.36372 49.3 7.65C49.2962 10.9346 46.6346 13.5963 43.35 13.6Z" fill="#3CC4E7"/>
<path d="M43.35 5.09999C43.8195 5.09999 44.2 5.48058 44.2 5.94999H45.9C45.8955 4.87338 45.2152 3.91547 44.2 3.55646V2.54999H42.5V3.55646C41.3301 3.96859 40.6278 5.16432 40.8378 6.38702C41.0482 7.60973 42.1095 8.50248 43.35 8.49999C43.8195 8.49999 44.2 8.88058 44.2 9.34999C44.2 9.8194 43.8195 10.2 43.35 10.2C42.8806 10.2 42.5 9.8194 42.5 9.34999H40.8C40.8046 10.4266 41.4849 11.3845 42.5 11.7435V12.75H44.2V11.7435C45.37 11.3314 46.0723 10.1357 45.8623 8.91295C45.6519 7.69025 44.5906 6.7975 43.35 6.79999C42.8806 6.79999 42.5 6.4194 42.5 5.94999C42.5 5.48058 42.8806 5.09999 43.35 5.09999Z" fill="#3CC4E7"/>
<path d="M32.3001 19.55C33.239 19.55 34.0002 20.3111 34.0002 21.25H35.7002C35.6943 19.7044 34.6468 18.3571 33.1501 17.9707V16.15H31.4501V17.9707C29.7941 18.397 28.7138 19.9887 28.93 21.6849C29.1458 23.3816 30.5902 24.652 32.3001 24.65C33.239 24.65 34.0002 25.4111 34.0002 26.35C34.0002 27.2888 33.239 28.05 32.3001 28.05C31.3613 28.05 30.6001 27.2888 30.6001 26.35H28.9001C28.906 27.8956 29.9535 29.2428 31.4501 29.6292V31.45H33.1501V29.6292C34.8062 29.2029 35.8865 27.6113 35.6703 25.915C35.4544 24.2183 34.0101 22.9479 32.3001 22.95C31.3613 22.95 30.6001 22.1888 30.6001 21.25C30.6001 20.3111 31.3613 19.55 32.3001 19.55Z" fill="#3CC4E7"/>
</g>
<defs>
<clipPath id="clip0_6_359">
<rect width="51" height="51" fill="white"/>
</clipPath>
</defs>
</svg>
