<svg width="49" height="49" viewBox="0 0 49 49" fill="none" xmlns="http://www.w3.org/2000/svg">
<g clip-path="url(#clip0_10_54)">
<path d="M27.0344 0C26.1719 0 25.3237 0.0642069 24.4873 0.177414C23.6154 0.0608276 22.7866 0 21.9655 0C15.7458 0 10.137 3.01688 6.20098 7.82648C6.16128 7.86197 6.13255 7.90421 6.10045 7.94645C4.84588 9.50009 3.76788 11.2396 2.89602 13.1219C2.87405 13.1633 2.85462 13.2038 2.83857 13.2486C2.2379 14.564 1.73691 15.9461 1.35167 17.3857C1.31366 17.4668 1.29676 17.5555 1.28578 17.6476C0.727346 19.8239 0.422363 22.1218 0.422363 24.5C0.422363 28.2206 1.15905 31.7478 2.46938 34.9091C2.48121 34.9429 2.49219 34.975 2.50824 35.0071C3.29393 36.8809 4.28238 38.623 5.44233 40.1986C5.4719 40.2391 5.4964 40.2822 5.53273 40.3169C6.70704 41.8925 8.05285 43.2957 9.53721 44.492C9.57945 44.5385 9.63014 44.5731 9.68252 44.6094C13.1691 47.3737 17.4026 49 21.9655 49C22.7866 49 23.6154 48.9392 24.4873 48.8226C25.3237 48.9358 26.1719 49 27.0344 49C38.9136 49 48.5775 38.0096 48.5775 24.5C48.5775 10.9904 38.9136 0 27.0344 0ZM18.1131 2.20838C17.8334 2.35369 17.5572 2.50576 17.2843 2.66374C17.1314 2.75245 16.9776 2.83778 16.8272 2.93071C16.5932 3.07433 16.3643 3.2264 16.1362 3.37931H14.5099C15.745 2.80145 17.0342 2.34609 18.3783 2.06307C18.2879 2.10784 18.2026 2.16191 18.1131 2.20838ZM9.59719 38.8621H6.56764C5.8225 37.8094 5.161 36.6782 4.58652 35.4828H7.78673C7.91936 35.7818 8.05538 36.0784 8.19816 36.3707C8.25983 36.4966 8.32404 36.6207 8.38824 36.7458C8.56143 37.0854 8.74054 37.4191 8.92724 37.7477C8.99652 37.8702 9.06326 37.9944 9.13507 38.1161C9.28376 38.3687 9.44005 38.6154 9.59719 38.8621ZM4.19705 14.3621H7.43021C7.28236 14.7313 7.14212 15.1047 7.00948 15.4832C6.97316 15.5879 6.93598 15.6918 6.9005 15.7966C6.77885 16.1599 6.66564 16.5265 6.55835 16.8966H3.25845C3.5271 16.0255 3.84138 15.1807 4.19705 14.3621ZM2.11202 24.5C2.11202 23.9306 2.14243 23.3696 2.17792 22.8103H5.54624C5.5454 22.8239 5.5454 22.8374 5.54455 22.8509C5.51329 23.3967 5.49133 23.9449 5.49133 24.5C5.49133 24.783 5.50147 25.0635 5.50991 25.3448H2.14497C2.13567 25.0627 2.11202 24.7847 2.11202 24.5ZM5.60623 27.0345C5.63833 27.3902 5.67973 27.7433 5.72535 28.0947C5.72873 28.1201 5.73042 28.1463 5.73379 28.1725C5.79631 28.6422 5.87235 29.1077 5.95767 29.569H2.62567C2.46093 28.7393 2.33083 27.8954 2.24719 27.0345H5.60623ZM6.13002 18.5862C6.10805 18.6859 6.08947 18.7873 6.06919 18.887C6.04638 18.9985 6.02273 19.1092 6.00076 19.2207C5.89769 19.7504 5.80645 20.2852 5.73464 20.8275C5.73126 20.8529 5.72957 20.8791 5.72619 20.9053C5.71605 20.9771 5.71014 21.0489 5.70085 21.1207H2.34773C2.45924 20.2607 2.60033 19.4124 2.79379 18.5862H6.13002ZM6.33193 31.2586C6.35812 31.3617 6.38262 31.4664 6.40966 31.5687C6.41979 31.6058 6.42824 31.6447 6.43838 31.6819C6.57778 32.1964 6.73407 32.7024 6.90135 33.2026C6.93683 33.3082 6.974 33.4112 7.01033 33.516C7.04159 33.6089 7.07285 33.7019 7.10579 33.7931H3.85067C3.53048 32.9728 3.25507 32.1263 3.02021 31.2586H6.33193ZM9.13423 10.8848C9.06326 11.0056 8.99567 11.1306 8.9264 11.2531C8.73969 11.5817 8.55974 11.9163 8.3874 12.2551C8.32404 12.3801 8.25898 12.5034 8.19731 12.6302C8.19055 12.6437 8.18295 12.6581 8.17619 12.6724H5.00893C5.64847 11.4668 6.38516 10.339 7.2021 9.2931H10.1615C10.0585 9.44095 9.95455 9.58795 9.85402 9.73833C9.60479 10.1126 9.36486 10.4944 9.13423 10.8848ZM11.6011 5.06897H13.9345C13.725 5.25229 13.5155 5.43647 13.3119 5.62824C13.1421 5.78876 12.9773 5.95519 12.8118 6.12162C12.6445 6.28974 12.4789 6.4604 12.3167 6.63359C12.1604 6.80002 12.0041 6.9656 11.852 7.1371C11.7169 7.28917 11.5876 7.44715 11.4567 7.60345H8.66704C9.57438 6.65978 10.5535 5.80903 11.6011 5.06897ZM7.87712 40.5517H10.7766C10.872 40.6768 10.9667 40.8018 11.0647 40.9243C11.3198 41.2453 11.5825 41.5579 11.852 41.8629C12.0033 42.0344 12.1604 42.2 12.3167 42.3664C12.4797 42.5404 12.6453 42.7111 12.8134 42.8792C12.881 42.9468 12.9452 43.0195 13.0137 43.0862H10.4724C9.54397 42.3267 8.67633 41.4785 7.87712 40.5517ZM18.3775 46.9369C16.4403 46.5289 14.6096 45.7804 12.9114 44.7759H14.9551C15.0632 44.8595 15.1747 44.9381 15.2837 45.0192C15.4586 45.1493 15.6335 45.2802 15.8117 45.4044C16.1438 45.6359 16.4825 45.8581 16.8264 46.0693C16.9768 46.1614 17.1305 46.2476 17.2834 46.3363C17.5563 46.4942 17.8326 46.6463 18.1122 46.7916C18.2026 46.8381 18.2879 46.8922 18.3775 46.9369ZM27.0344 47.3103C26.3628 47.3103 25.6996 47.2706 25.0457 47.1954L24.7188 47.1498C24.6731 47.1439 24.6284 47.1363 24.5836 47.1304C24.2913 47.089 24.0015 47.0408 23.7143 46.9851C23.6898 46.98 23.6661 46.9749 23.6425 46.9699C23.3628 46.915 23.0857 46.8533 22.8111 46.7849C22.7697 46.7747 22.7283 46.7629 22.6869 46.7519C22.431 46.686 22.1758 46.6167 21.9241 46.5399C21.8472 46.5162 21.7703 46.4892 21.6934 46.4647C21.478 46.3962 21.2634 46.3261 21.0514 46.2492C20.879 46.1867 20.7092 46.1174 20.5394 46.0499C20.4237 46.0042 20.3062 45.9612 20.1922 45.913C15.6495 43.991 11.8825 40.2121 9.59043 35.3814C9.56931 35.3374 9.54988 35.291 9.5296 35.2471C9.4071 34.9843 9.28798 34.719 9.17393 34.4504C9.12831 34.3431 9.08607 34.2341 9.04214 34.126C8.95681 33.9165 8.87233 33.7061 8.79292 33.4932C8.74138 33.3563 8.69323 33.2169 8.64423 33.0784C8.57748 32.8908 8.51159 32.7024 8.44991 32.5123C8.39923 32.3569 8.35107 32.1998 8.30292 32.0435C8.248 31.8652 8.19478 31.6861 8.14409 31.5062C8.09678 31.3414 8.052 31.1741 8.00891 31.0077C7.96329 30.8311 7.91936 30.6529 7.87712 30.4746C7.83657 30.304 7.79771 30.1333 7.76054 29.961C7.72167 29.781 7.68619 29.6002 7.65155 29.4186C7.6186 29.2454 7.58566 29.0722 7.55524 28.8973C7.52314 28.7106 7.49526 28.5231 7.46738 28.3347C7.44204 28.164 7.41585 27.9942 7.39388 27.8219C7.36769 27.6191 7.34741 27.4138 7.32629 27.2094C7.3094 27.0497 7.29081 26.8909 7.27729 26.7303C7.25702 26.4955 7.2435 26.2589 7.22998 26.0215C7.22238 25.8881 7.2114 25.7563 7.20548 25.6228C7.19028 25.2511 7.18098 24.8768 7.18098 24.5C7.18098 24.1232 7.19028 23.7489 7.20548 23.3764C7.2114 23.2429 7.22238 23.1103 7.22998 22.9776C7.2435 22.7411 7.25702 22.5037 7.27729 22.2688C7.29081 22.1083 7.3094 21.9495 7.32629 21.7898C7.34741 21.5853 7.36854 21.3809 7.39388 21.1773C7.41585 21.0058 7.44204 20.8351 7.46738 20.6645C7.49526 20.4761 7.52314 20.2885 7.55524 20.1018C7.58481 19.9269 7.61776 19.7538 7.65155 19.5806C7.68619 19.3989 7.72252 19.2181 7.76054 19.0382C7.79771 18.8658 7.83657 18.6952 7.87712 18.5245C7.91936 18.3463 7.96329 18.168 8.00891 17.9914C8.052 17.8242 8.09678 17.6577 8.14324 17.4922C8.19393 17.3122 8.24716 17.1331 8.30207 16.9548C8.35022 16.7977 8.39838 16.6414 8.44907 16.486C8.51159 16.2959 8.57748 16.1075 8.64423 15.9191C8.69323 15.7805 8.74138 15.642 8.79292 15.5051C8.87317 15.2922 8.95681 15.0819 9.04214 14.8723C9.08607 14.7642 9.12831 14.6552 9.17393 14.5479C9.28798 14.2793 9.4071 14.014 9.5296 13.7513C9.55072 13.7065 9.56931 13.6609 9.59043 13.6169C11.8825 8.78621 15.6495 5.00814 20.1922 3.08531C20.3071 3.03716 20.4237 2.99407 20.5394 2.94845C20.7092 2.88086 20.879 2.81159 21.0514 2.74907C21.2634 2.67219 21.478 2.60291 21.6934 2.53364C21.7703 2.50914 21.8463 2.4821 21.9241 2.45845C22.1758 2.38157 22.431 2.31145 22.6869 2.2464C22.7275 2.2371 22.7689 2.22443 22.8103 2.21429C23.0849 2.14586 23.362 2.08503 23.6416 2.02928C23.6661 2.02421 23.6898 2.01914 23.7134 2.01407C24.0007 1.95831 24.2904 1.91016 24.5827 1.86876C24.6275 1.862 24.6731 1.85524 24.7179 1.84933L25.0449 1.80371C25.6996 1.72936 26.3628 1.68966 27.0344 1.68966C37.9817 1.68966 46.8879 11.9222 46.8879 24.5C46.8879 37.0778 37.9817 47.3103 27.0344 47.3103Z" fill="#3CC4E7"/>
<path d="M11.9687 24.5C11.9687 23.9686 11.9898 23.4346 12.0312 22.9125C12.0676 22.4479 11.7212 22.0407 11.2557 22.0035C10.7885 21.9697 10.3838 22.3144 10.3466 22.7791C10.3019 23.3442 10.2791 23.9238 10.2791 24.5V24.5177C10.2791 24.9841 10.6575 25.3532 11.1239 25.3532C11.5902 25.3532 11.9687 24.9663 11.9687 24.5Z" fill="#3CC4E7"/>
<path d="M41.5097 19.6777C41.606 20.0613 41.9498 20.3164 42.3283 20.3164C42.3968 20.3164 42.466 20.308 42.5353 20.2911C42.9873 20.177 43.2619 19.7183 43.1487 19.2654C43.0067 18.7011 42.8403 18.1384 42.6527 17.5927C42.5015 17.1517 42.0217 16.9143 41.5798 17.0672C41.1388 17.2184 40.9031 17.6991 41.0543 18.1401C41.2258 18.6411 41.3787 19.159 41.5097 19.6777Z" fill="#3CC4E7"/>
<path d="M38.0359 36.3436C37.6979 36.7593 37.3406 37.1572 36.9739 37.5281C36.6453 37.8592 36.6478 38.394 36.979 38.7226C37.1437 38.8857 37.3591 38.9676 37.5737 38.9676C37.7909 38.9676 38.0088 38.884 38.1736 38.7176C38.5799 38.3078 38.9745 37.8677 39.347 37.4098C39.6419 37.0474 39.5861 36.5151 39.2245 36.2211C38.8629 35.9263 38.3307 35.982 38.0359 36.3436Z" fill="#3CC4E7"/>
<path d="M12.5507 29.2893C12.4383 28.8365 11.9779 28.5594 11.5267 28.6734C11.0739 28.7858 10.7985 29.2445 10.9108 29.6974C11.0511 30.2609 11.2167 30.8243 11.4034 31.3718C11.5233 31.7232 11.8511 31.9446 12.2026 31.9446C12.293 31.9446 12.3851 31.9294 12.4755 31.899C12.9165 31.7486 13.153 31.2687 13.0026 30.8269C12.832 30.3251 12.6799 29.8072 12.5507 29.2893Z" fill="#3CC4E7"/>
<path d="M35.3628 7.98278C34.8694 7.6609 34.354 7.36437 33.8319 7.10162C33.4146 6.89042 32.9077 7.06023 32.6973 7.47504C32.487 7.89154 32.6542 8.40012 33.0707 8.60964C33.5379 8.84535 33.9984 9.11062 34.4402 9.39871C34.5821 9.49164 34.7427 9.53557 34.9006 9.53557C35.1769 9.53557 35.4472 9.4004 35.6094 9.15202C35.8637 8.76171 35.7539 8.23792 35.3628 7.98278Z" fill="#3CC4E7"/>
<path d="M33.1627 40.343C32.693 40.5838 32.2081 40.7992 31.7215 40.9826C31.2847 41.1465 31.0642 41.6339 31.2289 42.0707C31.3565 42.4095 31.6775 42.6182 32.0197 42.6182C32.1185 42.6182 32.2191 42.6004 32.3179 42.5632C32.8645 42.3571 33.4086 42.1163 33.9349 41.846C34.3497 41.6331 34.5145 41.1237 34.3007 40.7089C34.087 40.294 33.5776 40.1293 33.1627 40.343Z" fill="#3CC4E7"/>
<path d="M40.3236 12.9065C39.9949 12.4207 39.6418 11.9484 39.2734 11.5015C38.9769 11.1416 38.4438 11.0892 38.0839 11.3866C37.724 11.6831 37.6725 12.2154 37.969 12.5761C38.3036 12.9825 38.6246 13.4125 38.9237 13.8535C39.0867 14.0951 39.3529 14.2244 39.624 14.2244C39.7871 14.2244 39.9518 14.1771 40.0971 14.0791C40.4841 13.8172 40.5855 13.2925 40.3236 12.9065Z" fill="#3CC4E7"/>
<path d="M42.9451 23.6281C42.4788 23.6281 42.1003 24.0336 42.1003 24.5C42.1003 25.0179 42.08 25.5408 42.0403 26.0528C42.0049 26.5183 42.3521 26.9246 42.8176 26.9601C42.8395 26.9618 42.8615 26.9626 42.8835 26.9626C43.3202 26.9626 43.6911 26.6264 43.7249 26.1829C43.768 25.627 43.79 25.0609 43.79 24.4991V24.4442C43.79 23.9787 43.4123 23.6281 42.9451 23.6281Z" fill="#3CC4E7"/>
<path d="M42.1577 30.2296C41.715 30.0809 41.2368 30.3192 41.0873 30.761C40.9166 31.2671 40.7232 31.7697 40.512 32.2555C40.3261 32.683 40.5213 33.1814 40.9496 33.3673C41.0594 33.4155 41.1743 33.4374 41.2867 33.4374C41.6128 33.4374 41.9228 33.2473 42.0614 32.9297C42.292 32.4 42.5032 31.8508 42.6891 31.2992C42.8386 30.8573 42.6004 30.3783 42.1577 30.2296Z" fill="#3CC4E7"/>
<path d="M28.7655 5.57166C28.1927 5.50492 27.6106 5.47113 27.0344 5.47113H26.999C26.5326 5.47113 26.1719 5.84961 26.1719 6.31596C26.1719 6.7823 26.5681 7.16079 27.0344 7.16079C27.5456 7.16079 28.0626 7.19035 28.5712 7.24949C28.6041 7.25372 28.6371 7.25541 28.67 7.25541C29.0924 7.25541 29.4583 6.9386 29.5081 6.50773C29.5613 6.04392 29.2293 5.62489 28.7655 5.57166Z" fill="#3CC4E7"/>
<path d="M15.1249 35.1178C14.8638 34.73 14.3383 34.6286 13.9523 34.8897C13.5653 35.1507 13.4631 35.6754 13.7242 36.0623C14.052 36.5481 14.4042 37.0212 14.7709 37.4689C14.9382 37.6725 15.1806 37.7781 15.4248 37.7781C15.6132 37.7781 15.8033 37.7156 15.9604 37.5864C16.3212 37.2898 16.3735 36.7584 16.0778 36.3968C15.7441 35.9913 15.4231 35.5605 15.1249 35.1178Z" fill="#3CC4E7"/>
<path d="M13.1345 15.5998C12.7062 15.4139 12.2094 15.6074 12.0219 16.0357C11.7896 16.5671 11.5775 17.1154 11.3908 17.6645C11.2413 18.1064 11.4778 18.5862 11.9197 18.7366C12.0092 18.767 12.1013 18.7814 12.1908 18.7814C12.5431 18.7814 12.8718 18.5592 12.9909 18.2077C13.1616 17.7034 13.3567 17.2007 13.5696 16.7124C13.758 16.2849 13.5628 15.7865 13.1345 15.5998Z" fill="#3CC4E7"/>
<path d="M27.0344 41.8392C26.5089 41.8392 25.9809 41.808 25.4647 41.7463C25.0043 41.6973 24.581 42.0217 24.5253 42.4855C24.4703 42.9485 24.8007 43.3692 25.2645 43.425C25.8474 43.4942 26.4439 43.5297 27.0352 43.5297H27.1079C27.5742 43.5297 27.9164 43.1512 27.9164 42.6849C27.9164 42.2185 27.5007 41.8392 27.0344 41.8392Z" fill="#3CC4E7"/>
<path d="M15.9216 10.2554C15.5153 10.6651 15.119 11.1036 14.7465 11.5606C14.4508 11.9222 14.5048 12.4545 14.8664 12.7493C15.0236 12.8777 15.2128 12.9402 15.4004 12.9402C15.6454 12.9402 15.8878 12.8346 16.0551 12.6302C16.3939 12.2154 16.7521 11.8175 17.1204 11.4474C17.4491 11.1163 17.4474 10.5815 17.1171 10.252C16.7859 9.92337 16.252 9.9259 15.9216 10.2554Z" fill="#3CC4E7"/>
<path d="M21.7873 6.42239C21.2398 6.62768 20.6949 6.86761 20.1686 7.13626C19.7529 7.34747 19.5873 7.8569 19.7994 8.27256C19.9481 8.56571 20.2446 8.73383 20.553 8.73383C20.6822 8.73383 20.8132 8.70427 20.9357 8.64175C21.4054 8.40266 21.8912 8.18808 22.3786 8.00559C22.8154 7.8417 23.0376 7.35508 22.8737 6.9183C22.7115 6.47983 22.2232 6.25849 21.7873 6.42239Z" fill="#3CC4E7"/>
<path d="M20.9677 40.3752C20.5031 40.1395 20.0426 39.8725 19.6 39.5827C19.2088 39.3276 18.6867 39.4374 18.4299 39.8269C18.1747 40.2172 18.2837 40.741 18.674 40.9961C19.1682 41.3197 19.6827 41.6179 20.2023 41.8815C20.3248 41.944 20.4558 41.9727 20.5842 41.9727C20.8925 41.9727 21.1891 41.8038 21.3386 41.5106C21.5498 41.095 21.3834 40.5864 20.9677 40.3752Z" fill="#3CC4E7"/>
</g>
<defs>
<clipPath id="clip0_10_54">
<rect width="49" height="49" fill="white"/>
</clipPath>
</defs>
</svg>
