<svg width="52" height="52" viewBox="0 0 52 52" fill="none" xmlns="http://www.w3.org/2000/svg">
<g clip-path="url(#clip0_10_30)">
<path d="M51.9992 20.7641C51.9992 11.6057 45.0451 4.00743 36.0249 3.12585C35.6983 2.00397 34.6626 1.18109 33.4367 1.18109H18.5632C17.3372 1.18109 16.3017 2.00397 15.9751 3.12585C6.95461 4.00857 0 11.607 0 20.7641V34.9171C0 37.9224 2.44508 40.3675 5.45033 40.3675H9.69333C10.956 40.3675 11.9833 39.3403 11.9833 38.0775V23.0383C11.9833 21.7756 10.956 20.7483 9.69333 20.7483H5.45033C4.09975 20.7483 2.86327 21.2432 1.91012 22.0597V20.7641C1.91012 12.6054 8.09698 5.83312 16.1281 5.02998C16.5612 5.94174 17.4884 6.57513 18.5632 6.57513H33.4367C34.5115 6.57513 35.4387 5.94174 35.8719 5.02998C43.9026 5.8321 50.0891 12.6044 50.0891 20.7642V22.0592C49.136 21.243 47.8997 20.7483 46.5495 20.7483H42.3065C41.0438 20.7483 40.0166 21.7756 40.0166 23.0383V38.0774C40.0166 39.3401 41.0438 40.3674 42.3065 40.3674H46.5495C47.9001 40.3674 49.1366 39.8725 50.0899 39.0559V39.7511C50.0899 43.3598 47.1539 46.2958 43.5452 46.2958H31.9718C31.5531 44.7908 30.1712 43.683 28.5347 43.683H25.0511C23.0838 43.683 21.4832 45.2835 21.4832 47.2508C21.4832 49.2181 23.0838 50.8187 25.0511 50.8187H28.5347C30.1712 50.8187 31.5531 49.7108 31.9718 48.2059H43.5452C48.2071 48.2059 52 44.4131 52 39.7511L51.9992 20.7641ZM10.0733 23.0383V38.0774C10.0733 38.2869 9.90294 38.4573 9.69346 38.4573H9.3136V22.6584H9.69346C9.90294 22.6584 10.0733 22.8288 10.0733 23.0383ZM5.45033 22.6584H7.40336V38.4574H5.45033C3.49819 38.4574 1.91012 36.8692 1.91012 34.9171V26.1987C1.91012 24.2465 3.49832 22.6584 5.45033 22.6584ZM33.4367 4.66489H18.5632C18.1293 4.66489 17.7763 4.3119 17.7763 3.87805C17.7763 3.4442 18.1293 3.09121 18.5632 3.09121H33.4367C33.8706 3.09121 34.2237 3.4442 34.2237 3.87805C34.2237 4.3119 33.8706 4.66489 33.4367 4.66489ZM41.9266 38.0774V23.0383C41.9266 22.8288 42.0969 22.6584 42.3064 22.6584H42.6863V38.4574H42.3064C42.0969 38.4574 41.9266 38.2869 41.9266 38.0774ZM28.5347 48.9087H25.0511C24.137 48.9087 23.3933 48.165 23.3933 47.2509C23.3933 46.3369 24.137 45.5932 25.0511 45.5932H28.5347C29.4489 45.5932 30.1926 46.3369 30.1926 47.2509C30.1926 48.165 29.4489 48.9087 28.5347 48.9087ZM46.5495 38.4574H44.5965V22.6584H46.5495C48.5017 22.6584 50.0899 24.2466 50.0899 26.1987V34.9171C50.0899 36.8692 48.5017 38.4574 46.5495 38.4574Z" fill="#3CC4E7"/>
</g>
<defs>
<clipPath id="clip0_10_30">
<rect width="52" height="52" fill="white"/>
</clipPath>
</defs>
</svg>
