<svg width="51" height="51" viewBox="0 0 51 51" fill="none" xmlns="http://www.w3.org/2000/svg">
<path d="M17.2078 25.361C17.7579 25.361 18.2039 24.9151 18.2039 24.3649C18.2039 23.8148 17.7579 23.3688 17.2078 23.3688C16.6576 23.3688 16.2117 23.8148 16.2117 24.3649C16.2117 24.9151 16.6576 25.361 17.2078 25.361Z" fill="#3CC4E7"/>
<path d="M24.7441 15.5891C21.7122 15.5891 18.9232 17.1142 17.2837 19.6687C16.986 20.1326 17.1208 20.75 17.5847 21.0477C18.0485 21.3454 18.6659 21.2107 18.9636 20.7468C20.2343 18.767 22.3952 17.585 24.7442 17.585C28.5284 17.585 31.6071 20.6637 31.6071 24.4479C31.6071 28.2321 28.5283 31.3108 24.7442 31.3108C22.3313 31.3108 20.1394 30.0794 18.881 28.0168C18.5938 27.5463 17.9796 27.3974 17.5092 27.6846C17.0386 27.9718 16.8899 28.5859 17.177 29.0564C18.8009 31.7179 21.6298 33.3069 24.7442 33.3069C29.629 33.3069 33.6032 29.3327 33.6032 24.4478C33.6032 19.5629 29.6289 15.5891 24.7441 15.5891Z" fill="#3CC4E7"/>
<path d="M47.6493 34.0348L48.9649 30.9665C49.1821 30.46 48.9476 29.8733 48.4412 29.656L43.7585 27.647C44.0926 25.6818 44.1179 23.6966 43.8338 21.7256L48.5628 19.8349C49.0745 19.6304 49.3235 19.0497 49.1191 18.538L46.4802 11.931C46.382 11.6851 46.1902 11.4883 45.9468 11.3839C45.7036 11.2796 45.4288 11.2761 45.1829 11.3743L40.4533 13.265C39.3 11.6399 37.9128 10.2183 36.3159 9.02516L38.3247 4.34302C38.5421 3.83651 38.3076 3.24971 37.8012 3.03236L31.264 0.226865C31.0207 0.122475 30.7459 0.118988 30.5001 0.217203C30.2543 0.315418 30.0575 0.507266 29.9532 0.750512L27.9441 5.43335C25.9774 5.09946 23.9915 5.07426 22.0209 5.35794L20.13 0.627793C19.9255 0.116 19.3445 -0.132924 18.8329 0.0714747L12.2259 2.71232C11.98 2.81053 11.7834 3.00238 11.679 3.24573C11.5747 3.48897 11.5712 3.76379 11.6696 4.00953L13.5602 8.73938C11.9387 9.89057 10.5174 11.2771 9.32116 12.875L4.63812 10.8658C4.39488 10.7616 4.12016 10.7581 3.87422 10.8563C3.62838 10.9545 3.43166 11.1463 3.32736 11.3897L0.522862 17.9299C0.305614 18.4366 0.540194 19.0233 1.04671 19.2405L5.72915 21.2484C5.39496 23.2142 5.37006 25.1996 5.65464 27.1709L0.924985 29.0616C0.413291 29.2662 0.164168 29.8468 0.368567 30.3586L3.00742 36.9646C3.10563 37.2104 3.29748 37.4073 3.54083 37.5115C3.78407 37.616 4.0589 37.6194 4.30473 37.5211L9.03439 35.6304C10.1878 37.2556 11.5748 38.6775 13.1719 39.8711L11.163 44.5534C10.9458 45.06 11.1802 45.6468 11.6867 45.8641L18.2248 48.6696C18.4681 48.7738 18.7429 48.7774 18.9888 48.6792C19.2346 48.5809 19.4313 48.389 19.5356 48.1457L21.5438 43.4628C23.5122 43.7964 25.4977 43.8218 27.4669 43.5384L29.3577 48.2686C29.5138 48.6589 29.8885 48.8964 30.2848 48.8964C30.4081 48.8964 30.5335 48.8734 30.6549 48.8249L33.4998 47.6877C35.3046 49.7183 37.9343 51 40.8582 51C46.2865 51 50.7027 46.5838 50.7027 41.1555C50.7027 38.3577 49.5295 35.8287 47.6493 34.0348V34.0348ZM30.8408 46.601L29.0225 42.0524C28.8456 41.6099 28.3806 41.354 27.9118 41.4419C25.6687 41.8627 23.3939 41.8338 21.1508 41.3559C20.6844 41.2567 20.2135 41.5007 20.0256 41.9387L18.0946 46.4416L13.3909 44.4233L15.3228 39.9201C15.5109 39.4817 15.3625 38.9716 14.9687 38.7026C13.079 37.4113 11.4905 35.783 10.2471 33.8632C9.98805 33.4628 9.48183 33.302 9.03897 33.4789L4.4907 35.297L2.59235 30.5447L7.14111 28.7263C7.58387 28.5493 7.83967 28.0837 7.75152 27.6151C7.32907 25.3689 7.35766 23.0949 7.83648 20.8563C7.93619 20.39 7.69215 19.9182 7.25387 19.7303L2.75073 17.7992L4.76851 13.0937L9.27156 15.0255C9.70914 15.2133 10.219 15.0655 10.4884 14.6724C11.7845 12.7804 13.4126 11.1923 15.3275 9.95183C15.7277 9.69254 15.8887 9.18653 15.7117 8.74366L13.8934 4.1954L18.6469 2.29545L20.4652 6.84401C20.6421 7.28668 21.1072 7.54257 21.5759 7.45452C23.8215 7.03327 26.096 7.06226 28.3365 7.54048C28.8029 7.64019 29.2741 7.39595 29.462 6.95797L31.3939 2.45493L36.0968 4.47321L34.1647 8.97645C33.9767 9.41483 34.1251 9.92503 34.5191 10.1942C36.4086 11.4847 37.9971 13.1126 39.2404 15.0325C39.4996 15.4328 40.0057 15.5938 40.4486 15.4168L44.9968 13.5986L46.8952 18.352L42.3475 20.1703C41.9048 20.3472 41.6491 20.8125 41.737 21.2811C42.1587 23.5274 42.1298 25.8011 41.6511 28.0391C41.5514 28.5054 41.7954 28.977 42.2335 29.1651L46.7368 31.0971L46.0175 32.7749C44.5162 31.8473 42.7486 31.3111 40.858 31.3111C35.4297 31.3111 31.0134 35.7272 31.0134 41.1556C31.0134 42.9227 31.4818 44.5824 32.3004 46.0176L30.8408 46.601ZM40.8582 49.004C36.5305 49.004 33.0097 45.4832 33.0097 41.1555C33.0097 36.8278 36.5305 33.307 40.8582 33.307C45.1858 33.307 48.7066 36.8278 48.7066 41.1555C48.7066 45.4832 45.1858 49.004 40.8582 49.004Z" fill="#3CC4E7"/>
<path d="M45.8828 37.6284C45.4669 37.2665 44.8365 37.3105 44.4749 37.7264L40.1596 42.6874L37.719 40.5007C37.3085 40.1329 36.6775 40.1675 36.3097 40.578C35.9418 40.9885 35.9765 41.6195 36.387 41.9874L39.5818 44.85C39.7654 45.0144 40.0028 45.1047 40.2478 45.1047C40.2685 45.1047 40.2892 45.1041 40.3099 45.1027C40.5766 45.0861 40.8256 44.9632 41.0009 44.7616L45.9809 39.0365C46.3426 38.6206 46.2987 37.9902 45.8828 37.6284Z" fill="#3CC4E7"/>
</svg>
