<svg width="54" height="54" viewBox="0 0 54 54" fill="none" xmlns="http://www.w3.org/2000/svg">
<path d="M44.0999 5.4H43.1999V4.5C43.1968 2.01577 41.1841 0.00307618 38.6999 0H9.8999C7.41567 0.00307618 5.40298 2.01577 5.3999 4.5V44.1C5.40298 46.5842 7.41567 48.5969 9.8999 48.6H10.7999V49.5C10.803 51.9842 12.8157 53.9969 15.2999 54H44.0999C46.5841 53.9969 48.5968 51.9842 48.5999 49.5V9.9C48.5968 7.41577 46.5841 5.40308 44.0999 5.4ZM35.9999 1.8V5.92734L34.8362 4.76367C34.4847 4.41255 33.9151 4.41255 33.5636 4.76367L32.3999 5.92734V1.8H35.9999ZM7.1999 44.1V4.5C7.1999 3.00894 8.40884 1.8 9.8999 1.8H30.5999V8.1C30.5999 8.46387 30.8192 8.79214 31.1554 8.93145C31.4916 9.07075 31.8787 8.99341 32.1362 8.73633L34.1999 6.67266L36.2636 8.73633C36.5211 8.99341 36.9082 9.07075 37.2444 8.93145C37.5806 8.79214 37.7999 8.46387 37.7999 8.1V1.8H38.6999C40.191 1.8 41.3999 3.00894 41.3999 4.5V44.1C41.3999 45.5911 40.191 46.8 38.6999 46.8H9.8999C8.40884 46.8 7.1999 45.5911 7.1999 44.1ZM46.7999 49.5C46.7999 50.9911 45.591 52.2 44.0999 52.2H15.2999C13.8088 52.2 12.5999 50.9911 12.5999 49.5V48.6H38.6999C41.1841 48.5969 43.1968 46.5842 43.1999 44.1V7.2H44.0999C45.591 7.2 46.7999 8.40894 46.7999 9.9V49.5Z" fill="#3CC4E7"/>
<path d="M19.7381 8.68932C19.6084 8.33776 19.2749 8.10265 18.9 8.10001H11.7C11.203 8.10001 10.8 8.50299 10.8 9.00001V16.2C10.8 16.697 11.203 17.1 11.7 17.1H18.9C19.3971 17.1 19.8 16.697 19.8 16.2V11.1727L22.2364 8.73634L20.9637 7.46368L19.7381 8.68932ZM18 15.3H12.6V9.90001H18V10.4274L16.2 12.2274L15.0364 11.0637L13.7637 12.3363L15.5637 14.1363C15.9153 14.4875 16.4848 14.4875 16.8364 14.1363L18 12.9727V15.3Z" fill="#3CC4E7"/>
<path d="M20.9637 20.0637L19.7381 21.2893C19.6084 20.9377 19.2749 20.7026 18.9 20.7H11.7C11.203 20.7 10.8 21.103 10.8 21.6V28.8C10.8 29.297 11.203 29.7 11.7 29.7H18.9C19.3971 29.7 19.8 29.297 19.8 28.8V23.7726L22.2364 21.3363L20.9637 20.0637ZM18 27.9H12.6V22.5H18V23.0273L16.2 24.8273L15.0364 23.6637L13.7637 24.9363L15.5637 26.7363C15.9153 27.0874 16.4848 27.0874 16.8364 26.7363L18 25.5726V27.9Z" fill="#3CC4E7"/>
<path d="M18.9 32.4H11.7C11.203 32.4 10.8 32.8029 10.8 33.3V40.5C10.8 40.997 11.203 41.4 11.7 41.4H18.9C19.3971 41.4 19.8 40.997 19.8 40.5V33.3C19.8 32.8029 19.3971 32.4 18.9 32.4ZM18 39.6H12.6V34.2H18V39.6Z" fill="#3CC4E7"/>
<path d="M23.3999 13.5H32.3999V15.3H23.3999V13.5Z" fill="#3CC4E7"/>
<path d="M23.3999 9.89996H28.7999V11.7H23.3999V9.89996Z" fill="#3CC4E7"/>
<path d="M23.3999 26.1H32.3999V27.9H23.3999V26.1Z" fill="#3CC4E7"/>
<path d="M23.3999 22.5H28.7999V24.3H23.3999V22.5Z" fill="#3CC4E7"/>
<path d="M23.3999 37.8H32.3999V39.6H23.3999V37.8Z" fill="#3CC4E7"/>
<path d="M23.3999 34.2H28.7999V36H23.3999V34.2Z" fill="#3CC4E7"/>
<path d="M30.6001 34.2H32.4001V36H30.6001V34.2Z" fill="#3CC4E7"/>
</svg>
