<svg width="61" height="61" viewBox="0 0 61 61" fill="none" xmlns="http://www.w3.org/2000/svg">
<g clip-path="url(#clip0_10_32)">
<path d="M48.1945 30.1786C47.0792 25.0548 46.1161 20.6296 48.0233 16.6498C48.1787 16.3255 48.1387 15.9412 47.9198 15.6556C47.701 15.3702 47.3402 15.232 46.9866 15.2981C46.7569 15.341 41.6343 16.3781 38.3558 23.617C37.4678 22.5137 36.1186 20.628 34.9544 18.1263C32.3819 12.5981 31.9377 6.91299 33.6342 1.22819C33.7388 0.87816 33.6343 0.498935 33.3651 0.251838C33.0961 0.00462079 32.7099 -0.0675784 32.3695 0.0662165C32.2552 0.111132 29.5425 1.19781 26.9663 4.00215C24.5959 6.58249 21.8937 11.1668 22.482 18.3525C22.7946 22.1709 22.7608 24.8457 22.6133 26.6697C21.8595 24.1305 20.6119 22.1912 19.5009 20.8492C17.6188 18.5755 15.7322 17.4892 15.6528 17.4442C15.3298 17.2607 14.9297 17.281 14.627 17.4964C14.3243 17.7117 14.174 18.083 14.2417 18.4484C15.403 24.722 14.2521 28.2854 13.0336 32.058C12.1354 34.8387 11.2065 37.7143 11.2065 41.7066C11.2068 52.3451 19.8618 61 30.5001 61C41.1384 61 49.7933 52.3451 49.7933 41.7067C49.7933 37.524 48.944 33.6217 48.1945 30.1786ZM37.6163 57.5654C38.8597 56.0085 39.6055 54.0376 39.6055 51.8945C39.6055 45.3929 37.6116 40.0403 35.9388 36.6949C34.122 33.0613 32.3137 30.9768 32.2377 30.8899C31.8903 30.4928 31.287 30.4526 30.89 30.8C30.493 31.1474 30.4528 31.7507 30.8001 32.1477C30.8689 32.2266 37.6952 40.1636 37.6952 51.8945C37.6952 55.8619 34.4674 59.0898 30.4999 59.0898C26.3818 59.0898 23.3048 55.2911 23.3048 51.8945C23.3048 50.211 23.6709 49.0688 24.0292 48.1735C24.2252 47.6837 23.9869 47.1278 23.4971 46.9319C23.0072 46.7359 22.4514 46.9741 22.2555 47.4638C21.8547 48.466 21.3945 49.875 21.3945 51.8945C21.3945 53.9219 22.1935 55.989 23.6018 57.6609C17.4388 54.9861 13.1168 48.8421 13.1168 41.7067C13.1168 38.0154 13.9594 35.4068 14.8514 32.6451C15.9387 29.2787 17.0586 25.8118 16.4684 20.4449C18.4493 22.2298 21.3945 25.839 21.3945 31.5189C21.3945 31.8995 21.6205 32.2438 21.9698 32.3951C22.3189 32.5466 22.7247 32.476 23.0027 32.2158C23.3952 31.8481 25.307 29.4436 24.386 18.1967C23.9616 13.015 25.2838 8.69533 28.3154 5.35773C29.3399 4.22982 30.3991 3.40775 31.257 2.84374C29.8634 9.55624 31.4965 15.2238 33.2223 18.9324C35.2847 23.3644 37.8658 25.9727 37.9747 26.0816C38.2042 26.3112 38.5348 26.4084 38.8523 26.3398C39.1697 26.2711 39.4304 26.0458 39.5444 25.7417C41.2956 21.0714 43.8189 18.91 45.5167 17.935C44.4389 21.9071 45.3603 26.1418 46.3276 30.5853C47.0924 34.0977 47.8829 37.7298 47.8829 41.7069C47.8831 48.7578 43.6632 54.8414 37.6163 57.5654Z" fill="#3CC4E7"/>
<path d="M31.5301 37.7183C31.0158 37.6028 30.5046 37.9264 30.3891 38.441C30.1218 39.6321 29.7551 40.5019 29.442 41.0886C27.4721 38.7893 25.6348 38.7139 25.4062 38.7139C24.8787 38.7139 24.451 39.1415 24.451 39.6691C24.451 41.0839 24.2845 42.2906 23.9268 43.4664C23.7734 43.9711 24.0581 44.5047 24.5628 44.6582C24.6555 44.6863 24.749 44.6999 24.8411 44.6999C25.2505 44.6999 25.6291 44.4344 25.7544 44.0223C26.0509 43.0475 26.2368 42.0298 26.3164 40.938C26.3354 40.9479 26.3547 40.9582 26.3741 40.9688C26.9382 41.2757 27.7975 41.9213 28.6867 43.2552C28.8454 43.4934 29.1025 43.6476 29.3873 43.6759C29.6726 43.7044 29.9545 43.6032 30.1567 43.4008C30.2988 43.2586 31.5653 41.9236 32.253 38.8593C32.3685 38.3446 32.0449 37.8336 31.5301 37.7183Z" fill="#3CC4E7"/>
</g>
<defs>
<clipPath id="clip0_10_32">
<rect width="61" height="61" fill="white"/>
</clipPath>
</defs>
</svg>
