<svg width="38" height="70" viewBox="0 0 38 70" fill="none" xmlns="http://www.w3.org/2000/svg">
<g clip-path="url(#clip0_721_126)">
<path fill-rule="evenodd" clip-rule="evenodd" d="M6.7669 0H31.2387C33.1023 0 34.7885 0.780436 36.0199 2.03939C37.2457 3.29834 38.0055 5.03011 38.0055 6.94987V63.0558C38.0055 64.9699 37.2457 66.7017 36.0199 67.9663C34.794 69.2253 33.1023 70.0057 31.2387 70.0057H6.7669C4.90323 70.0057 3.21705 69.2253 1.9857 67.9663C0.759889 66.7017 0 64.9699 0 63.0501V6.94987C0 5.03581 0.759889 3.30404 1.9857 2.03939C3.2115 0.780436 4.90323 0 6.7669 0ZM9.36827 27.9875L9.44037 27.8792L7.68764 28.1356C7.40476 28.1755 7.13297 28.0957 6.91666 27.9305C6.70588 27.7653 6.55058 27.5147 6.51175 27.2241C6.47292 26.9336 6.55058 26.6545 6.71143 26.4323C6.87228 26.2101 7.11633 26.0563 7.39921 26.0164L11.9419 25.3613H11.953C11.9807 25.3556 12.0085 25.3556 12.0362 25.3556C12.3191 25.3499 12.5798 25.4582 12.7684 25.6405C12.9625 25.8285 13.0845 26.0848 13.0956 26.3753C13.1566 27.9761 13.2176 29.5768 13.262 31.1776C13.2731 31.4681 13.1677 31.7415 12.9847 31.9352C12.8016 32.1346 12.552 32.2599 12.2636 32.2713H12.2525C11.9696 32.2827 11.7034 32.1745 11.5093 31.9865C11.3151 31.8042 11.1931 31.5422 11.182 31.2516C11.1543 30.5452 11.1321 29.8332 11.1044 29.1268C10.9546 29.349 10.8048 29.5882 10.6551 29.8617C10.1503 30.7845 9.78981 31.77 9.57904 32.7783C9.36272 33.798 9.29616 34.8462 9.39046 35.883C9.4792 36.9027 9.71216 37.911 10.1004 38.868C10.472 39.7966 10.9879 40.6738 11.6424 41.4771C11.8864 41.7733 12.136 42.0524 12.3967 42.3145C12.663 42.5822 12.9348 42.8328 13.2176 43.0664C13.8499 43.5905 14.5211 44.0234 15.2144 44.3709C15.9244 44.7241 16.6565 44.9805 17.4109 45.1514L17.6549 45.2083V47.3731L17.2889 47.3047C16.3237 47.1167 15.3808 46.8091 14.4656 46.3704C13.5726 45.9432 12.7184 45.3963 11.9142 44.7355C11.5814 44.4621 11.2597 44.1659 10.9491 43.8525C10.644 43.5449 10.3445 43.2145 10.0561 42.8556C9.25733 41.8815 8.63057 40.8105 8.18129 39.6883C7.70982 38.5262 7.42695 37.3071 7.32156 36.0767C7.21617 34.8291 7.29383 33.5702 7.55452 32.3397C7.80966 31.1263 8.2423 29.9414 8.85243 28.8306C9.02438 28.523 9.19078 28.2495 9.36827 27.9875ZM24.0447 46.5584C23.2127 46.9173 22.3529 47.1794 21.4877 47.3389L21.1216 47.4072V45.2482L21.3712 45.1969C22.0035 45.0659 22.6358 44.8665 23.246 44.5988C23.8505 44.3368 24.4329 44.0064 24.9931 43.619L25.2039 43.4709L26.6904 44.9976L26.3909 45.214C25.6476 45.7552 24.86 46.2052 24.0447 46.5584ZM30.6784 39.7738C30.329 40.6226 29.8853 41.4258 29.3528 42.1834L29.142 42.4854L27.6555 40.9587L27.8053 40.7365C28.188 40.1725 28.5042 39.5744 28.7649 38.9535C29.02 38.3325 29.2197 37.6774 29.3472 37.0109L29.3972 36.7546H31.4993L31.4383 37.1305C31.283 38.0363 31.0279 38.9193 30.6784 39.7738ZM31.161 31.77C31.2553 32.1232 31.3385 32.4764 31.3995 32.8296L31.4716 33.2056H29.3694L29.314 32.9549C29.2585 32.7043 29.1975 32.4536 29.1309 32.2087C29.0588 31.9637 28.9812 31.7188 28.8924 31.4738C28.7482 31.075 28.5818 30.682 28.3988 30.3003C28.2157 29.9186 28.0161 29.554 27.7997 29.2122L27.6666 28.9958L29.1587 27.4634L29.3694 27.7824C29.6634 28.2324 29.9352 28.6995 30.1792 29.1952C30.4233 29.6908 30.6452 30.2035 30.8337 30.7275C30.9558 31.0807 31.0667 31.4282 31.161 31.77ZM24.6548 23.6125C25.2982 23.9144 25.9028 24.2733 26.463 24.6891L26.7625 24.9113L25.276 26.438L25.0652 26.2899C24.6326 25.988 24.1722 25.7259 23.6841 25.5037C23.2071 25.2873 22.7079 25.1107 22.181 24.9797C21.948 24.9227 21.6984 24.8714 21.4377 24.8315C21.1882 24.7917 20.9386 24.7632 20.689 24.7461C20.4338 24.729 20.1731 24.7233 19.9124 24.729C19.6573 24.7347 19.391 24.7518 19.1193 24.786C18.8364 24.8145 18.5646 24.729 18.3538 24.5581C18.143 24.3872 18.0044 24.1366 17.9711 23.8403C17.9378 23.5498 18.0266 23.2707 18.193 23.0542C18.3594 22.8377 18.6034 22.6953 18.8918 22.6611C19.2135 22.627 19.5408 22.6042 19.868 22.5928C20.1953 22.5871 20.5059 22.5928 20.8165 22.6099C21.1271 22.6327 21.4377 22.6668 21.7373 22.7124C22.0423 22.758 22.3529 22.8206 22.6636 22.9004C23.3624 23.0827 24.028 23.3219 24.6548 23.6125ZM19.0028 62.4406C20.5281 62.4406 21.7705 63.7166 21.7705 65.2832C21.7705 66.8498 20.5281 68.1258 19.0028 68.1258C17.4774 68.1258 16.235 66.8498 16.235 65.2832C16.235 63.7166 17.4664 62.4406 19.0028 62.4406ZM1.94687 60.2588H36.0587V8.73291H1.94687V60.2588Z" fill="white"/>
</g>
<defs>
<clipPath id="clip0_721_126">
<rect width="38" height="70" fill="white"/>
</clipPath>
</defs>
</svg>
