<svg width="75" height="60" viewBox="0 0 75 60" fill="none" xmlns="http://www.w3.org/2000/svg">
<g clip-path="url(#clip0_721_149)">
<path d="M42.5049 4.75223C42.6208 4.75223 42.7307 4.77051 42.8345 4.80098C43.3289 4.92892 43.6951 5.37977 43.6951 5.91592V20.3676L56.1645 7.92039C56.5857 7.5 57.1289 7.29894 57.6782 7.29894C58.2214 7.29894 58.7708 7.5 59.1919 7.92039L63.4949 12.2157C63.6963 12.4167 63.7451 12.7579 63.5864 13.026C63.0859 13.818 62.9028 14.7563 63.0066 15.658C63.1165 16.5292 63.5071 17.3883 64.1907 18.0707C64.8621 18.753 65.7166 19.143 66.6077 19.2526C67.4988 19.3623 68.4143 19.1734 69.2139 18.7104C69.4763 18.5398 69.8364 18.552 70.0684 18.7896L74.3713 23.0849C74.7925 23.5053 74.9939 24.0475 74.9939 24.5959C74.9939 25.1381 74.7925 25.6864 74.3713 26.1068L43.6951 56.7283V58.8546C43.6951 59.4882 43.1763 60.0061 42.5415 60.0061H3.30811C2.39868 60.0061 1.57471 59.6344 0.976562 59.0374C0.372314 58.4342 0 57.6056 0 56.6978V3.12551C0 2.93664 0.0427246 2.75995 0.128174 2.60154C0.292969 1.99838 0.610352 1.46223 1.0376 1.03574C1.67847 0.39602 2.56348 0 3.53394 0H42.5049C43.1396 0 43.6584 0.517872 43.6584 1.1515C43.6584 1.78513 43.1396 2.30301 42.5049 2.30301H3.53394C3.19824 2.30301 2.89307 2.44314 2.66724 2.66247C2.44751 2.8879 2.30713 3.19253 2.30713 3.52762C2.30713 3.86271 2.44751 4.16734 2.66724 4.39277C2.89307 4.6182 3.19824 4.75223 3.53394 4.75223H42.5049ZM43.6951 22.2685V29.0069C43.8599 29.0374 44.0491 29.08 44.2688 29.1349L45.3308 28.0747L46.3074 29.0496L45.8557 29.5004L47.0215 29.7746L48.2117 28.5865L49.1943 29.5674L48.6145 30.1462L50.0977 30.4874L52.594 27.9955C52.9419 27.6483 53.6133 27.7396 54.0771 28.2027C54.541 28.6657 54.6387 29.3359 54.2847 29.6832L51.7883 32.1751L52.1301 33.6434L52.7039 33.0707L53.6865 34.0516L52.5024 35.2336L52.771 36.3972L53.2166 35.9525L54.1992 36.9334L53.1433 37.9874L53.1494 38.0118C53.656 40.2295 53.2043 39.5349 51.5198 41.2165L49.0784 34.8924L46.6614 37.305C46.8262 38.4748 46.8994 39.4131 45.9778 40.3331L44.9463 39.3278C44.8669 38.8343 44.8303 38.4809 44.7876 38.225C44.635 38.1519 44.4824 38.0483 44.3481 37.9204C44.2322 37.8046 44.1345 37.6706 44.0674 37.5366C43.9636 37.5244 43.8354 37.5122 43.6951 37.4939V47.8574L47.2046 51.3607L67.1387 31.4561L50.8179 15.1584L43.6951 22.2685ZM43.6951 31.7608V35.4407C44.0918 35.4285 44.5068 35.5016 44.9768 35.593L47.3877 33.1864L43.6951 31.7608ZM43.6951 49.6974V54.8578L46.283 52.2746L43.6951 49.6974ZM68.0664 30.5361L51.7395 14.2384L57.1167 8.87084C57.2754 8.71243 57.4768 8.63932 57.6965 8.63932C57.8979 8.63932 58.1177 8.71852 58.2764 8.87084L62.2192 12.8067C61.7676 13.7571 61.5967 14.7989 61.7188 15.8286C62.1704 19.5816 66.1621 21.6836 69.5129 20.0934L73.4558 24.0292C73.6145 24.1877 73.6877 24.3887 73.6877 24.608C73.6877 24.8091 73.6084 25.0284 73.4558 25.1868L73.4375 25.1686L68.0664 30.5361ZM31.7017 31.5475C31.7383 31.5475 31.7749 31.5475 31.8054 31.5536C32.0374 31.1515 32.2449 30.725 32.4402 30.2803C32.4463 30.2742 32.4463 30.2681 32.4524 30.2559C32.7393 29.5796 32.959 28.8729 33.0994 28.1418C33.2092 27.5751 33.2886 27.0024 33.3069 26.4054H29.8828C29.8218 28.1418 29.303 29.8538 28.3386 31.5353H31.6956V31.5475H31.7017ZM31.1035 32.6381H27.6611C26.6174 34.1552 25.2014 35.6418 23.4375 37.1223C23.7122 37.0857 23.9929 37.0431 24.2615 36.9882C25 36.842 25.7141 36.6227 26.3977 36.3241C27.0935 36.0256 27.7405 35.6783 28.3508 35.2701C28.9551 34.868 29.5105 34.411 30.0232 33.8993C30.4199 33.5033 30.7861 33.089 31.1157 32.6381H31.1035ZM20.5017 37.1162C18.7378 35.6418 17.3279 34.1491 16.2781 32.632H12.8357C13.1653 33.0768 13.5315 33.4972 13.9282 33.8932C14.447 34.405 14.9963 34.8619 15.6006 35.264C16.1987 35.6661 16.8457 36.0195 17.5537 36.318C17.5598 36.3241 17.5659 36.3241 17.5781 36.3302C18.2556 36.6166 18.9636 36.8359 19.696 36.9821C19.9646 37.037 20.2393 37.0796 20.52 37.1162H20.5017ZM12.1155 31.5475H15.5823C14.6179 29.8599 14.093 28.1479 14.0381 26.4175H10.614C10.6445 27.0146 10.7117 27.5873 10.8215 28.1539C10.968 28.8911 11.1877 29.604 11.4868 30.2864C11.676 30.725 11.8835 31.1454 12.1155 31.5475ZM10.614 25.327H14.0564C14.1846 23.6271 14.7522 21.9151 15.7593 20.197H12.1094C11.8774 20.5991 11.6699 21.0195 11.4807 21.4582C11.4746 21.4643 11.4746 21.4704 11.4685 21.4825C11.1816 22.1588 10.9619 22.8656 10.8215 23.5967C10.7117 24.1511 10.6384 24.7299 10.614 25.327ZM12.8296 19.1003H16.4673C17.5049 17.6076 18.8721 16.1089 20.575 14.604C20.2698 14.6405 19.9707 14.6832 19.6777 14.7441C18.9392 14.8903 18.2251 15.1097 17.5415 15.4082C16.8457 15.7067 16.1987 16.0601 15.5884 16.4622C14.9841 16.8643 14.4287 17.3213 13.916 17.8331C13.5193 18.2291 13.1531 18.6434 12.8235 19.0942L12.8296 19.1003ZM23.3582 14.604C25.0671 16.1089 26.4343 17.6076 27.4658 19.1003H31.1035C30.7739 18.6556 30.4077 18.2352 30.011 17.8392C29.4922 17.3274 28.9429 16.8704 28.3386 16.4683C27.7405 16.0662 27.0935 15.7128 26.3855 15.4143C26.3794 15.4082 26.3733 15.4082 26.3611 15.4021C25.6836 15.1158 24.9756 14.8964 24.2432 14.7502C23.9441 14.6893 23.645 14.6466 23.3459 14.6101V14.604H23.3582ZM31.8176 20.1909H28.1677C29.1748 21.9151 29.7424 23.621 29.8706 25.3209H33.313C33.2825 24.7238 33.2153 24.1511 33.1055 23.5845C32.959 22.8473 32.7393 22.1344 32.4402 21.4521C32.2571 21.0134 32.0496 20.593 31.8176 20.1909ZM19.4641 13.6779C20.2698 13.5134 21.106 13.4342 21.9666 13.4342C22.8272 13.4342 23.6572 13.5134 24.469 13.6779C25.2686 13.8363 26.0376 14.0739 26.7944 14.3968C26.8005 14.3968 26.8188 14.4029 26.825 14.409C27.5696 14.7319 28.2837 15.1158 28.949 15.5605C29.6143 15.9992 30.2246 16.511 30.7861 17.0654C31.3538 17.6259 31.8542 18.2352 32.2937 18.8993C32.7393 19.5634 33.1238 20.2701 33.4473 21.0195C33.7769 21.7811 34.0149 22.5609 34.1797 23.3712C34.3445 24.1755 34.4238 25.0102 34.4238 25.8692C34.4238 26.7283 34.3445 27.5569 34.1797 28.3672C34.021 29.1653 33.783 29.933 33.4595 30.6885C33.4595 30.6946 33.4534 30.7128 33.4473 30.7189C33.1238 31.4744 32.7393 32.1751 32.2937 32.8392C31.8542 33.5033 31.3416 34.1125 30.7861 34.673C30.2246 35.2396 29.6143 35.7392 28.949 36.1779C28.2837 36.6227 27.5757 37.0065 26.825 37.3294C26.062 37.6584 25.2808 37.896 24.469 38.0605C23.6633 38.225 22.8272 38.3042 21.9666 38.3042C21.106 38.3042 20.2759 38.225 19.4641 38.0605C18.6646 37.9021 17.8955 37.6645 17.1387 37.3416C17.1326 37.3416 17.1143 37.3355 17.1082 37.3294C16.3635 37.0065 15.6494 36.6227 14.9841 36.1779C14.3188 35.7392 13.7085 35.2275 13.147 34.673C12.5793 34.1125 12.0789 33.5033 11.6394 32.8392C11.1938 32.1751 10.8093 31.4683 10.4858 30.7189C10.1562 29.9574 9.91821 29.1775 9.75342 28.3672C9.58862 27.563 9.50928 26.7283 9.50928 25.8692C9.50928 25.0102 9.58862 24.1816 9.75342 23.3712C9.91211 22.5731 10.1501 21.8054 10.4736 21.05C10.4736 21.0439 10.4797 21.0256 10.4858 21.0195C10.8093 20.264 11.1938 19.5634 11.6394 18.8993C12.0789 18.2352 12.5855 17.6259 13.147 17.0654C13.7085 16.4988 14.3188 15.9992 14.9841 15.5605C15.6494 15.1158 16.3574 14.7319 17.1082 14.409C17.8711 14.08 18.6584 13.8424 19.4641 13.6779ZM22.5098 15.3107V19.1003H26.1292C25.177 17.8513 23.9746 16.5902 22.5098 15.3107ZM22.5098 20.1909V25.3209H28.7781C28.6377 23.6332 28.009 21.9273 26.886 20.1909H22.5098ZM22.5098 26.4115V31.5414H27.0752C28.1616 29.8416 28.7354 28.1296 28.8025 26.4115H22.5098ZM22.5098 32.6381V36.4704C24.054 35.2031 25.3296 33.9175 26.3123 32.6381H22.5098ZM21.4233 36.4704V32.6381H17.6208C18.5974 33.9175 19.8669 35.2031 21.4233 36.4704ZM21.4233 31.5475V26.4175H15.1306C15.1978 28.1418 15.7776 29.8477 16.8579 31.5475H21.4233ZM21.4233 25.327V20.197H17.041C15.918 21.9334 15.2893 23.6454 15.1489 25.327H21.4233ZM21.4233 19.1003V15.3107C19.9585 16.5841 18.7561 17.8452 17.804 19.1003H21.4233ZM13.7878 52.1649C13.1531 52.1649 12.6343 51.647 12.6343 51.0134C12.6343 50.3798 13.1531 49.8619 13.7878 49.8619H29.8706C30.5054 49.8619 31.0242 50.3798 31.0242 51.0134C31.0242 51.647 30.5054 52.1649 29.8706 52.1649H13.7878ZM9.09424 46.1332C8.45947 46.1332 7.94067 45.6154 7.94067 44.9817C7.94067 44.3481 8.45947 43.8302 9.09424 43.8302H34.5703C35.2051 43.8302 35.7239 44.3481 35.7239 44.9817C35.7239 45.6154 35.2051 46.1332 34.5703 46.1332H9.09424ZM41.3879 7.05524H3.53394C3.10059 7.05524 2.68555 6.97604 2.30713 6.83591V56.6978C2.30713 56.972 2.4231 57.2218 2.6001 57.4046C2.7832 57.5873 3.03345 57.697 3.30811 57.697H41.3879V7.05524Z" fill="white"/>
</g>
<defs>
<clipPath id="clip0_721_149">
<rect width="75" height="60" fill="white"/>
</clipPath>
</defs>
</svg>
