<svg width="70" height="72" viewBox="0 0 70 72" fill="none" xmlns="http://www.w3.org/2000/svg">
<path fill-rule="evenodd" clip-rule="evenodd" d="M32.5816 27.8438C37.4948 42.7734 35.2615 57.1992 30.4777 72H40.1335C43.7772 48.4922 40.6742 38.2852 37.0364 29.1035C38.8898 30.3 40.584 31.7254 42.0787 33.3457L46.3513 32.6719L43.9417 35.4902C44.5098 36.1934 45.074 36.9414 45.6343 37.7344L49.613 37.1074L47.1505 39.9902C47.5795 40.6582 48.0027 41.3555 48.4199 42.0762L52.0695 41.4902L49.6776 44.291C50.1771 45.2168 50.6708 46.1777 51.1703 47.168L54.2322 46.6875L52.1224 49.1543C53.2273 51.498 54.3204 54.0371 55.4017 56.7715C63.4355 41.8477 58.3402 30.8672 39.2519 23.7422C41.4199 23.0653 43.6695 22.6829 45.9399 22.6055L47.6031 20.3438L47.7852 22.6172C49.0904 22.676 50.3891 22.8346 51.6699 23.0918L53.0568 21.1816L53.2273 23.4375C54.3296 23.7279 55.4146 24.08 56.4772 24.4922L57.8994 22.5469L58.111 25.1836C59.2682 25.7087 60.3962 26.2955 61.4902 26.9414L63.1181 24.7148L63.3885 28.1016C65.7124 29.6249 67.9221 31.315 70 33.1582C64.8636 13.8223 50.2124 9.18164 37.1186 20.2031C38.8993 6.36914 33.187 3.04688 25.5235 0C26.4873 1.45898 27.3806 2.92969 28.174 4.43555L30.2603 4.6875L28.7969 5.66602C29.4322 6.97602 29.9742 8.32897 30.4189 9.71484L32.2819 9.91406L30.7716 10.9512C31.3574 13.1647 31.5855 15.4571 31.4474 17.7422C19.6289 6.92578 9.76156 10.9277 0.681723 20.4609C2.48594 20.0391 4.30191 19.6699 6.11787 19.3945L6.92301 17.3906L7.54009 19.1953C8.93823 19.0171 10.3447 18.9115 11.7538 18.8789L12.559 16.875L13.2407 18.873C14.4108 18.8986 15.5784 18.9926 16.7375 19.1543L17.5896 16.9922L18.43 19.4531C19.632 19.7118 20.8112 20.0664 21.9562 20.5137L23.0434 17.8066L24.3481 21.627C24.9358 21.9375 25.4882 22.2832 26.0524 22.6582C12.3768 20.9414 4.70154 28.623 0 38.707C1.9133 36.9309 3.95194 35.2938 6.10024 33.8086L5.92394 32.707L6.72907 33.3984C8.01556 32.5506 9.36759 31.8061 10.7724 31.1719L10.4962 29.4141L11.983 30.6797C13.5416 30.0817 15.1713 29.6878 16.8315 29.5078C16.1562 30.7331 15.5671 32.0038 15.0684 33.3105L15.1625 33.3867H15.0332C11.507 42.6797 14.0106 51.1934 17.7601 60.4395C18.0774 56.7305 18.477 53.1797 19.0589 49.8926L17.6014 48.7207L19.241 48.6328C19.5231 47.168 19.8483 45.752 20.2166 44.3848L18.7004 43.1777L20.5692 43.0898C20.9395 41.877 21.3509 40.7109 21.8093 39.5742L20.2754 38.3438L22.3793 38.2793C22.9475 37.0571 23.6117 35.8815 24.3657 34.7637L22.6497 33.3984L25.4588 33.3105C27.3537 30.9514 29.7826 29.0738 32.5464 27.832L32.5816 27.8438Z" fill="white"/>
</svg>
